<svg width="71" height="80" viewBox="0 0 71 80" fill="none" xmlns="http://www.w3.org/2000/svg">
<path d="M67.9257 17.7006L38.5741 0.733125C36.8833 -0.244375 34.1162 -0.244375 32.4254 0.733125L3.07435 17.7006C1.38339 18.6781 0 21.0775 0 23.0325V56.9675C0.131551 59.2444 1.29303 61.13 3.07419 62.2994L32.4257 79.2668C34.1164 80.2444 36.8835 80.2444 38.5743 79.2668L67.9257 62.2994C69.837 61.0266 70.9249 59.1107 71 56.9675V23.0325C70.9313 20.9755 69.701 18.9008 67.9257 17.7006ZM11.8333 40.0002C11.6943 16.8611 42.647 6.64391 55.995 28.1442L45.7527 34.0786C39.5697 23.8391 24.2176 27.5005 23.6666 40.0002C23.832 51.5203 38.9212 56.8717 45.7534 45.9208L55.9957 51.8552C44.2322 72.3024 12.4263 64.9458 11.8333 40.0002ZM59.1665 41.3164H56.5368V43.9496H53.9076V41.3164H51.2779V38.6836H53.9076V36.0508H56.5371V38.6836H59.1667L59.1665 41.3164ZM69.0277 41.3164H66.3979V43.9496H63.7685V41.3164H61.139V38.6836H63.7688V36.0508H66.3981V38.6836H69.0278L69.0277 41.3164Z" fill="#0F1014"/>
</svg>
