<svg width="100" height="100" viewBox="0 0 100 100" fill="none" xmlns="http://www.w3.org/2000/svg">
<path d="M8.33325 87.5001V75.0001C8.33325 74.0973 8.47214 73.2292 8.74992 72.3959C9.0277 71.5626 9.44436 70.7639 9.99992 70.0001L44.7916 23.1251L39.9999 16.6667C39.6527 16.1806 39.4096 15.6764 39.2708 15.1542C39.1319 14.6348 39.0971 14.1139 39.1666 13.5917C39.236 13.0723 39.4096 12.5695 39.6874 12.0834C39.9652 11.5973 40.3471 11.1806 40.8333 10.8334C41.8055 10.1389 42.8471 9.86117 43.9583 10.0001C45.0694 10.1389 45.9721 10.6945 46.6666 11.6667L49.9999 16.1459L53.3333 11.6667C54.0277 10.6945 54.9305 10.1389 56.0416 10.0001C57.1527 9.86117 58.1944 10.1389 59.1666 10.8334C60.1388 11.5278 60.6944 12.4306 60.8333 13.5417C60.9721 14.6528 60.6944 15.6945 59.9999 16.6667L55.2083 23.1251L89.9999 70.0001C90.5555 70.7639 90.9721 71.5626 91.2499 72.3959C91.5277 73.2292 91.6666 74.0973 91.6666 75.0001V87.5001C91.6666 88.6806 91.2666 89.6695 90.4666 90.4667C89.6694 91.2667 88.6805 91.6667 87.4999 91.6667H12.4999C11.3194 91.6667 10.3305 91.2667 9.53325 90.4667C8.73325 89.6695 8.33325 88.6806 8.33325 87.5001ZM34.2708 83.3334H65.7291L49.9999 61.3542L34.2708 83.3334Z" fill="black"/>
</svg>
