<svg width="100" height="100" viewBox="0 0 100 100" fill="none" xmlns="http://www.w3.org/2000/svg">
<path d="M80.2916 22.2084C74.7499 19.625 68.7499 17.75 62.4999 16.6667C62.4451 16.6649 62.3906 16.6752 62.3402 16.6968C62.2898 16.7184 62.2448 16.7508 62.2083 16.7917C61.4583 18.1667 60.5832 19.9584 59.9999 21.3334C53.3707 20.3334 46.6291 20.3334 39.9999 21.3334C39.4166 19.9167 38.5416 18.1667 37.7499 16.7917C37.7083 16.7084 37.5833 16.6667 37.4583 16.6667C31.2083 17.75 25.2499 19.625 19.6666 22.2084C19.6249 22.2084 19.5833 22.25 19.5416 22.2917C8.20825 39.25 5.08325 55.75 6.62492 72.0834C6.62492 72.1667 6.66659 72.25 6.74992 72.2917C14.2499 77.7917 21.4583 81.125 28.5833 83.3334C28.7083 83.375 28.8333 83.3334 28.8749 83.25C30.5416 80.9584 32.0416 78.5417 33.3333 76C33.4166 75.8334 33.3333 75.6667 33.1666 75.625C30.7916 74.7084 28.5416 73.625 26.3333 72.375C26.1666 72.2917 26.1666 72.0417 26.2916 71.9167C26.7499 71.5834 27.2083 71.2084 27.6666 70.875C27.7499 70.7917 27.8749 70.7917 27.9583 70.8334C42.2916 77.375 57.7499 77.375 71.9166 70.8334C71.9999 70.7917 72.1249 70.7917 72.2082 70.875C72.6666 71.25 73.1249 71.5834 73.5832 71.9584C73.7499 72.0834 73.7499 72.3334 73.5416 72.4167C71.3749 73.7084 69.0833 74.75 66.7083 75.6667C66.5416 75.7084 66.4999 75.9167 66.5416 76.0417C67.8749 78.5834 69.3749 81 70.9999 83.2917C71.1249 83.3334 71.2499 83.375 71.3749 83.3334C78.5416 81.125 85.7499 77.7917 93.2499 72.2917C93.3332 72.25 93.3749 72.1667 93.3749 72.0834C95.2082 53.2084 90.3332 36.8334 80.4582 22.2917C80.4166 22.25 80.3749 22.2084 80.2916 22.2084ZM35.4999 62.125C31.2083 62.125 27.6249 58.1667 27.6249 53.2917C27.6249 48.4167 31.1249 44.4584 35.4999 44.4584C39.9166 44.4584 43.4166 48.4584 43.3749 53.2917C43.3749 58.1667 39.8749 62.125 35.4999 62.125ZM64.5416 62.125C60.2499 62.125 56.6666 58.1667 56.6666 53.2917C56.6666 48.4167 60.1666 44.4584 64.5416 44.4584C68.9582 44.4584 72.4582 48.4584 72.4166 53.2917C72.4166 58.1667 68.9582 62.125 64.5416 62.125Z" fill="black"/>
</svg>
