<svg width="100" height="100" viewBox="0 0 100 100" fill="none" xmlns="http://www.w3.org/2000/svg">
<g clip-path="url(#clip0_574_16)">
<path d="M46.5668 0C46.5668 0 43.7293 8.075 42.9543 10.5292C41.0168 9.175 34.9418 4.975 32.4168 3.22917C33.0001 6.5875 33.9001 12.0792 34.0959 13.2417C33.5793 12.8542 30.6751 10.3333 26.2834 8.26667C28.7376 11.1083 30.4834 15.5 31.5793 19.05C38.2314 15.2709 45.7536 13.2905 53.4043 13.3042C57.4751 13.3042 61.4876 13.8875 65.2959 14.9833C65.6834 11.3 66.4584 6.78333 68.1376 3.49167C64.3251 6.525 61.9959 9.75417 61.6751 10.1417C61.5459 9.36667 61.2876 3.80833 60.9668 0C59.4168 1.67917 53.4668 8.4 52.3709 9.43333C51.6001 8.075 46.5668 0 46.5668 0ZM53.5418 16.0833C46.5668 16.0833 39.7918 17.6917 33.9751 20.7292C36.9459 20.9208 39.0751 23.5125 39.7876 25.5792C37.4626 23.7042 33.7793 22.8 31.5168 25.2542C29.3876 27.7083 29.5834 32.2875 31.7126 35.9708C26.7418 33.45 26.7376 26.8667 28.4834 24.025C22.7701 28.1669 18.1557 33.6424 15.0418 39.975L19.5001 40.6917C14.3334 46.6333 10.7209 57.1625 10.7209 62.1333L18.0126 59.8708C16.7209 64.2625 16.3418 79.0458 20.7334 86.475C20.7334 86.475 26.4834 82.475 33.0043 72.4625C35.7126 81.5042 34.4876 89.0667 33.0043 96.4917C44.7543 103.079 58.3793 99.3917 66.3876 93.6458L67.8751 99.2708C77.2418 93.0667 82.4084 84.1542 83.3751 73.7542L86.8626 77.6292C92.2209 61.675 88.0293 48.95 80.3418 38.0375L80.0168 40.6917L76.7251 37.0667C76.7251 37.0667 77.4334 36.7458 78.0168 35.9708C78.1418 35.6458 77.8251 33.9083 76.4709 32.7458C75.1793 33.0708 74.1376 33.8458 73.6209 34.6208C72.4654 33.6546 71.1554 32.8898 69.7459 32.3583C70.0043 32.6792 72.2626 35.65 72.4543 36.5542C74.3959 38.1708 77.0459 40.0417 78.7876 42.3667C77.3709 40.6875 70.5209 40.2958 67.4209 42.0417C67.4209 42.0417 64.3209 38.425 61.4793 35.9042C60.8959 33.775 62.8376 31.9042 62.8376 31.9042C62.8376 31.9042 60.8376 31.7792 58.9626 33.6542C56.1209 31.5208 52.5043 30.55 52.5043 30.55C48.5001 31.1333 45.7876 33.9667 45.7876 33.9667C46.6918 34.55 47.9209 35.3292 49.0209 35.7167C51.1501 36.6208 53.2126 36.2958 54.5709 36.2958C55.6668 36.2958 57.2209 36.6208 57.2209 36.6208C57.2209 36.6208 59.8668 38.6833 63.7418 43.1417C57.8001 40.75 51.5959 43.4 47.2043 41.2667C42.0376 38.6833 42.4293 34.6208 42.4293 34.6208C42.4293 34.6208 38.9459 34.1625 38.9459 34.0333C38.9459 34.0333 41.5209 30.6167 45.3959 29.45L43.4626 27.775C45.7876 25.8375 49.8543 23.2542 56.4418 22.6083C56.4418 22.6083 59.2876 23.7 65.2334 27.9625C66.2001 26.6042 66.5168 23.7625 66.5168 23.7625C69.5501 24.7958 75.7543 29.3167 78.2084 32.0292C76.8543 28.8667 75.8793 26.9333 75.5584 23.6417C74.0709 22.1542 70.3918 19.0542 62.7709 17.1792C64.0001 19.7 63.8709 21.825 63.8709 21.825C62.4543 19.95 59.4751 17.05 57.4126 16.275C56.1834 16.2125 54.8918 16.0792 53.5376 16.0792L53.5418 16.0833ZM67.1709 45.5333C68.7412 46.7865 70.5101 47.7681 72.4043 48.4375V54.0542C70.4668 55.7333 64.1334 61.0333 59.8709 60.5792C57.4834 55.9958 55.2251 51.8 55.2251 51.8C55.2251 51.8 61.7459 46.3083 67.1709 45.5333ZM79.5668 45.6625C81.5043 50.375 82.0251 55.9958 79.8918 59.7417C78.7251 57.2208 77.2418 55.7958 75.6918 54.1167V48.5042C75.6918 48.5042 77.4334 47.4042 79.5668 45.6625ZM75.4959 59.8083C77.4334 61.9375 77.8251 64.2583 77.8251 64.2583C76.9834 68.9708 74.3418 71.95 72.4043 73.175C72.5959 69.7542 71.6876 66.8458 71.6876 66.8458C70.2709 68.3958 66.9793 69.9417 65.0376 70.3292L62.1334 64.9125C65.5584 64.7792 71.3043 59.9375 71.3043 59.9375L75.4959 59.8083Z" fill="black"/>
</g>
<defs>
<clipPath id="clip0_574_16">
<rect width="100" height="100" fill="white"/>
</clipPath>
</defs>
</svg>
