<svg width="100" height="100" viewBox="0 0 100 100" fill="none" xmlns="http://www.w3.org/2000/svg">
<path d="M87.3333 76.6665C83.3333 78.6665 78 77.3332 75.3333 73.3332L68 63.9998H32L24.6667 73.3332C21.3333 77.9998 15.3333 78.6665 10.6667 75.3332C7.33333 72.6665 6 68.6665 6.66667 65.3332L11.3333 40.6665C12.6667 32.6665 20 26.6665 28 26.6665H46.6667V16.6665C46.6667 11.3332 50.6667 6.6665 56 6.6665H76.6667C78.6667 6.6665 80 7.99984 80 9.99984C80 11.9998 78.6667 13.3332 76.6667 13.3332H56.6667C54.6667 13.3332 53.3333 14.6665 53.3333 15.9998V26.6665H72C80 26.6665 87.3333 32.6665 88.6667 40.6665L93.3333 65.3332C94 69.9998 92 74.6665 87.3333 76.6665ZM40 43.3332C40 37.9998 35.3333 33.3332 30 33.3332C24.6667 33.3332 20 37.9998 20 43.3332C20 48.6665 24.6667 53.3332 30 53.3332C35.3333 53.3332 40 48.6665 40 43.3332ZM80 43.3332C80 41.3332 78.6667 39.9998 76.6667 39.9998H73.3333V36.6665C73.3333 34.6665 72 33.3332 70 33.3332C68 33.3332 66.6667 34.6665 66.6667 36.6665V39.9998H63.3333C61.3333 39.9998 60 41.3332 60 43.3332C60 45.3332 61.3333 46.6665 63.3333 46.6665H66.6667V49.9998C66.6667 51.9998 68 53.3332 70 53.3332C72 53.3332 73.3333 51.9998 73.3333 49.9998V46.6665H76.6667C78.6667 46.6665 80 45.3332 80 43.3332Z" fill="black"/>
</svg>
