<svg width="114" height="114" viewBox="0 0 114 114" fill="none" xmlns="http://www.w3.org/2000/svg">
<path d="M107.729 6.27088C103.547 2.08839 98.5139 0 92.6254 0H21.3746C15.4861 0 10.4534 2.08839 6.27088 6.27088C2.08839 10.4534 0 15.4861 0 21.3746V92.6254C0 98.5139 2.08839 103.547 6.27088 107.729C10.4534 111.912 15.4861 114 21.3746 114H38.0019C39.086 114 39.902 113.96 40.4498 113.886C41.0871 113.758 41.6623 113.418 42.0817 112.922C42.6238 112.351 42.8976 111.524 42.8976 110.439L42.8577 105.39C42.8349 102.171 42.8235 99.6266 42.8235 97.7436L41.1117 98.0403C40.0275 98.24 38.6581 98.3256 36.9976 98.3028C35.2669 98.2709 33.5418 98.0972 31.8394 97.7836C30.0272 97.449 28.3213 96.686 26.8638 95.5582C25.3374 94.4035 24.199 92.8113 23.6 90.9934L22.8582 89.2816C22.233 87.9313 21.4475 86.6612 20.5187 85.4986C19.4574 84.112 18.379 83.1762 17.2892 82.6798L16.7756 82.3089C16.4175 82.0525 16.0918 81.7536 15.8056 81.4188C15.5322 81.1081 15.3072 80.758 15.138 80.3803C14.9896 80.0322 15.1152 79.7469 15.5089 79.5244C15.9083 79.2962 16.6216 79.1877 17.6657 79.1877L19.1493 79.416C20.1364 79.61 21.3632 80.2034 22.8183 81.1906C24.2908 82.1944 25.5208 83.5141 26.4187 85.0535C27.5599 87.0791 28.9294 88.6255 30.5385 89.6925C32.1476 90.7538 33.7681 91.2902 35.4 91.2902C37.0319 91.2902 38.4413 91.1646 39.6338 90.9193C40.7871 90.6808 41.9077 90.3053 42.9718 89.8009C43.4169 86.4914 44.6266 83.9351 46.6065 82.1549C44.041 81.9033 41.4983 81.457 39.0005 80.8197C36.5628 80.15 34.2185 79.1782 32.022 77.9267C29.7239 76.6756 27.6941 74.985 26.0479 72.9511C24.4673 70.9711 23.1663 68.3749 22.1507 65.1624C21.1407 61.9442 20.6329 58.2296 20.6329 54.0243C20.6329 48.0387 22.5843 42.9433 26.4929 38.7323C24.667 34.2359 24.8382 29.1861 27.0122 23.6C28.4501 23.1492 30.5784 23.4859 33.3972 24.5985C36.2159 25.7112 38.2815 26.6641 39.5939 27.4515C40.9063 28.2504 41.9562 28.918 42.7493 29.46C47.3881 28.1691 52.182 27.5202 56.9971 27.5314C61.8986 27.5314 66.646 28.1762 71.2507 29.46L74.0695 27.6798C76.2377 26.378 78.5246 25.2851 80.8995 24.4159C83.5243 23.4231 85.5214 23.1549 86.9137 23.6C89.139 29.1919 89.333 34.2359 87.5014 38.738C91.41 42.9433 93.3671 48.0387 93.3671 54.03C93.3671 58.2353 92.8593 61.9614 91.8436 65.1967C90.8337 68.4377 89.5213 71.0339 87.9122 72.991C86.237 74.9989 84.1987 76.6733 81.9038 77.9267C79.5073 79.2619 77.1792 80.2262 74.9254 80.8197C72.4277 81.4591 69.885 81.9073 67.3193 82.1606C69.887 84.3859 71.1765 87.8951 71.1765 92.6938V110.439C71.1765 111.278 71.2964 111.957 71.5474 112.476C71.6628 112.727 71.8274 112.951 72.0313 113.136C72.2352 113.322 72.4742 113.464 72.7343 113.555C73.282 113.749 73.7614 113.874 74.1836 113.92C74.6058 113.977 75.2107 113.994 75.9981 113.994H92.6254C98.5139 113.994 103.547 111.906 107.729 107.723C111.906 103.547 114 98.5082 114 92.6197V21.3746C114 15.4861 111.912 10.4534 107.729 6.27088Z" fill="#1F2229"/>
</svg>
