<svg width="100" height="100" viewBox="0 0 100 100" fill="none" xmlns="http://www.w3.org/2000/svg">
<path d="M85.7083 61.9168L91.6666 55.9585L85.7083 50.0002L70.8333 64.8752L35.1249 29.1668L49.9999 14.2918L44.0416 8.3335L38.0833 14.2918L32.1249 8.3335L23.2083 17.2502L17.2499 11.2918L11.2916 17.2502L17.2499 23.2085L8.33325 32.1252L14.2916 38.0835L8.33325 44.0418L14.2916 50.0002L29.1666 35.1252L64.8749 70.8335L49.9999 85.7085L55.9583 91.6668L61.9166 85.7085L67.8749 91.6668L76.7916 82.7502L82.7499 88.7085L88.7083 82.7502L82.7499 76.7918L91.6666 67.8752L85.7083 61.9168Z" fill="black"/>
</svg>
