<svg width="64" height="86" viewBox="0 0 64 86" fill="none" xmlns="http://www.w3.org/2000/svg">
<path d="M46.5879 52.5567C48.2494 51.4314 50.5552 50.4571 50.5552 50.4571C50.5552 50.4571 43.9939 51.6329 37.4665 52.1704C29.481 52.8255 20.9021 52.9598 16.5957 52.3888C6.40609 51.045 22.1906 47.333 22.1906 47.333C22.1906 47.333 16.0701 46.9298 8.52538 50.5243C-0.375649 54.7907 30.566 56.7391 46.5879 52.5567ZM32.1089 47.165C28.8876 39.9928 18.0198 33.6941 32.1089 22.6755C49.6838 8.93582 40.6708 0 40.6708 0C44.316 14.1932 27.8533 18.4931 21.9024 27.3114C17.8503 33.3414 23.886 39.8081 32.1089 47.165ZM51.5386 17.5693C51.5555 17.5693 21.8345 24.9262 36.0253 41.1182C40.2131 45.8885 34.9233 50.1884 34.9233 50.1884C34.9233 50.1884 45.5537 44.7463 40.6708 37.9436C36.1101 31.5945 32.6175 28.4367 51.5386 17.5693ZM50.5043 63.0042C50.4117 63.1643 50.2976 63.3112 50.1653 63.441C71.9177 57.7805 63.9152 43.4697 53.5222 47.0978C52.9609 47.3022 52.4759 47.6713 52.132 48.156C52.7389 47.9384 53.3626 47.7699 53.9969 47.6521C59.2528 46.5603 66.7975 54.6227 50.5043 63.0042ZM58.5 73.4686C58.5 73.4686 60.9584 75.4674 55.8043 77.0294C45.9877 79.9689 14.9782 80.8591 6.3654 77.147C3.26275 75.8201 9.07809 73.9557 10.9092 73.5693C12.8081 73.1662 13.9101 73.2334 13.9101 73.2334C10.4684 70.8315 -8.35097 77.9533 4.34783 79.9857C38.9754 85.5621 67.4858 77.483 58.5 73.4686ZM20.5969 66.5147C7.25381 70.21 28.718 77.8357 45.7063 70.6299C44.0494 69.9922 42.45 69.2168 40.9251 68.312C33.3465 69.7397 29.837 69.8405 22.9535 69.0678C17.2738 68.4296 20.5969 66.5147 20.5969 66.5147ZM51.0808 82.8411C37.7377 85.327 21.2751 85.0415 11.5263 83.4458C11.5263 83.429 13.5269 85.075 23.8012 85.7301C39.4332 86.7211 63.4405 85.1758 64 77.8525C64 77.8525 62.9149 80.6239 51.0808 82.8411ZM43.6887 59.2922C33.6517 61.207 27.8364 61.1566 20.4951 60.4008C14.8154 59.8129 18.5284 57.0918 18.5284 57.0918C3.81207 61.9293 26.7004 67.405 47.2661 61.4422C45.9369 60.9772 44.719 60.2452 43.6887 59.2922Z" fill="#0F1014"/>
</svg>
