<svg width="114" height="114" viewBox="0 0 114 114" fill="none" xmlns="http://www.w3.org/2000/svg">
<path fill-rule="evenodd" clip-rule="evenodd" d="M1.40976e-06 9.52419C1.40976e-06 6.99822 1.00344 4.57571 2.78957 2.78958C4.5757 1.00345 6.99821 1.26971e-05 9.52418 1.26971e-05H104.465C105.717 -0.0020318 106.957 0.242848 108.114 0.720631C109.271 1.19841 110.323 1.89972 111.208 2.78439C112.094 3.66906 112.796 4.71973 113.275 5.87625C113.754 7.03276 114.001 8.2724 114 9.52419V104.465C114.001 105.717 113.756 106.958 113.277 108.115C112.799 109.272 112.097 110.323 111.212 111.209C110.327 112.094 109.276 112.797 108.119 113.276C106.963 113.754 105.723 114.001 104.471 114H9.52418C8.27301 114 7.0341 113.753 5.87824 113.275C4.72237 112.796 3.67221 112.094 2.78774 111.209C1.90327 110.324 1.20183 109.273 0.723499 108.117C0.245169 106.961 -0.000679313 105.722 1.40976e-06 104.471V9.52419ZM45.1233 43.4651H60.5599V51.2171C62.7881 46.7607 68.4881 42.75 77.0536 42.75C93.4748 42.75 97.3664 51.6265 97.3664 67.9129V98.0815H80.7483V71.6231C80.7483 62.3476 78.5201 57.114 72.8615 57.114C65.0111 57.114 61.7465 62.757 61.7465 71.6231V98.0815H45.1233V43.4651ZM16.6233 97.3715H33.2465V42.75H16.6233V97.3664V97.3715ZM35.625 24.9349C35.6563 26.3582 35.4031 27.7735 34.8801 29.0975C34.357 30.4216 33.5748 31.6279 32.5793 32.6456C31.5838 33.6633 30.395 34.4719 29.0827 35.024C27.7705 35.576 26.3611 35.8604 24.9375 35.8604C23.5138 35.8604 22.1045 35.576 20.7923 35.024C19.48 34.4719 18.2912 33.6633 17.2957 32.6456C16.3002 31.6279 15.518 30.4216 14.9949 29.0975C14.4719 27.7735 14.2187 26.3582 14.25 24.9349C14.3115 22.1412 15.4645 19.4826 17.4621 17.5285C19.4597 15.5744 22.1431 14.4802 24.9375 14.4802C27.7319 14.4802 30.4153 15.5744 32.4129 17.5285C34.4105 19.4826 35.5635 22.1412 35.625 24.9349Z" fill="#1F2229"/>
</svg>
