<svg width="80" height="81" viewBox="0 0 80 81" fill="none" xmlns="http://www.w3.org/2000/svg">
<path d="M50.4679 25.7138C48.7885 26.8476 43.4705 29.9252 42.6708 30.5326C41.1114 31.7879 39.672 31.7069 38.1126 30.4921C37.3129 29.8442 31.9949 26.7666 30.3156 25.6733C28.3963 24.418 28.5163 22.8387 30.6355 21.9478C37.1929 19.1537 43.7504 19.3562 50.2679 22.0693C52.2272 22.9197 52.3072 24.499 50.4679 25.7138ZM79.3368 55.1935C75.6182 46.7302 70.5402 39.0364 63.9827 32.2738C61.9552 30.1413 60.4967 27.5215 59.7443 24.6609C59.3445 23.3246 59.0646 21.9478 58.7847 20.571C57.985 17.0075 57.6251 13.3631 55.9857 10.0021C53.0669 3.60398 47.9888 0.283459 40.6316 0C33.3944 0.202471 27.9965 3.28003 24.8377 9.71859C23.998 11.4598 23.3982 13.2821 22.9984 15.1448C22.3186 18.2224 21.7189 21.4214 20.9991 24.5395C20.3994 27.1716 19.1998 29.4392 17.1606 31.4639C10.7231 37.8215 5.56505 45.1105 1.64655 53.1283C1.08676 54.3026 0.526977 55.477 0.167115 56.6918C-0.592594 59.3644 1.32667 61.2271 4.1256 60.5792C5.88493 60.2148 7.64425 59.8503 9.32361 59.3239C10.963 58.7165 11.6027 59.1214 12.0026 60.7412C14.6016 69.4475 20.2794 75.5621 28.9561 78.9636C45.4298 85.2807 64.6624 76.291 68.8208 60.4173C69.1007 59.3239 69.5006 58.919 70.7001 59.3239C72.5394 59.8908 74.4187 60.2958 76.298 60.7412C78.2572 61.1057 79.6967 60.0933 79.9766 58.1496C80.0965 57.0967 79.7367 56.1654 79.3368 55.1935Z" fill="#0F1014"/>
</svg>
