<svg width="51" height="86" viewBox="0 0 51 86" fill="none" xmlns="http://www.w3.org/2000/svg">
<path fill-rule="evenodd" clip-rule="evenodd" d="M27.6167 0.932201C27.3479 0.638464 27.0209 0.403878 26.6565 0.243382C26.292 0.082887 25.8981 0 25.4999 0C25.1016 0 24.7077 0.082887 24.3433 0.243382C23.9789 0.403878 23.6519 0.638464 23.3831 0.932201L8.29607 17.3862C3.23981 22.8973 0.307632 30.0247 0.0228765 37.4964C-0.261879 44.9681 2.11932 52.2978 6.74148 58.1772L22.6316 78.3922V86H28.3681V78.3922L44.2583 58.1772C48.8797 52.2989 51.261 44.9708 50.9773 37.5004C50.6936 30.03 47.7634 22.9033 42.7094 17.3919L27.6167 0.937934V0.932201ZM28.3681 17.2028C28.3681 16.4425 28.066 15.7134 27.5281 15.1758C26.9902 14.6382 26.2606 14.3362 25.4999 14.3362C24.7392 14.3362 24.0096 14.6382 23.4717 15.1758C22.9338 15.7134 22.6316 16.4425 22.6316 17.2028V60.201C22.6316 60.9613 22.9338 61.6904 23.4717 62.228C24.0096 62.7656 24.7392 63.0676 25.4999 63.0676C26.2606 63.0676 26.9902 62.7656 27.5281 62.228C28.066 61.6904 28.3681 60.9613 28.3681 60.201V17.2028Z" fill="#0F1014"/>
</svg>
