<svg width="100" height="100" viewBox="0 0 100 100" fill="none" xmlns="http://www.w3.org/2000/svg">
<path d="M52.0833 62.5002C54.9999 62.5002 57.4652 61.4932 59.4791 59.4793C61.493 57.4654 62.4999 55.0002 62.4999 52.0835V29.1668H74.9999V20.8335H58.3333V43.7502C57.4305 43.0557 56.4583 42.5349 55.4166 42.1877C54.3749 41.8404 53.2638 41.6668 52.0833 41.6668C49.1666 41.6668 46.7013 42.6738 44.6874 44.6877C42.6735 46.7016 41.6666 49.1668 41.6666 52.0835C41.6666 55.0002 42.6735 57.4654 44.6874 59.4793C46.7013 61.4932 49.1666 62.5002 52.0833 62.5002ZM33.3333 75.0002C31.0416 75.0002 29.0805 74.1849 27.4499 72.5543C25.8166 70.921 24.9999 68.9585 24.9999 66.6668V16.6668C24.9999 14.3752 25.8166 12.4127 27.4499 10.7793C29.0805 9.14877 31.0416 8.3335 33.3333 8.3335H83.3333C85.6249 8.3335 87.5874 9.14877 89.2208 10.7793C90.8513 12.4127 91.6666 14.3752 91.6666 16.6668V66.6668C91.6666 68.9585 90.8513 70.921 89.2208 72.5543C87.5874 74.1849 85.6249 75.0002 83.3333 75.0002H33.3333ZM16.6666 91.6668C14.3749 91.6668 12.4138 90.8516 10.7833 89.221C9.14992 87.5877 8.33325 85.6252 8.33325 83.3335V25.0002H16.6666V83.3335H74.9999V91.6668H16.6666Z" fill="black"/>
</svg>
