<svg width="84" height="75" viewBox="0 0 84 75" fill="none" xmlns="http://www.w3.org/2000/svg">
<path d="M42 30.1303C46.0242 30.1303 49.306 33.4057 49.306 37.5C49.306 41.3993 46.0242 44.7138 42 44.7138C37.9758 44.7138 34.694 41.3993 34.694 37.5C34.694 33.4057 37.9758 30.1303 42 30.1303ZM23.9107 68.6947C26.3721 70.1764 31.7637 67.9148 37.9758 62.0658C35.9442 59.7652 33.9516 57.2696 32.0763 54.6571C28.9279 54.3563 25.7978 53.8878 22.6995 53.2533C20.707 61.5979 21.4493 67.3299 23.9107 68.6947ZM26.6847 46.3125L25.5516 44.3238C25.1219 45.4546 24.6921 46.5854 24.4186 47.6773C25.4735 47.9112 26.6456 48.1062 27.8567 48.3012L26.6847 46.3125ZM52.2363 43.349L55.4009 37.5L52.2363 31.651C51.0642 29.5844 49.814 27.7517 48.6809 25.919C46.5712 25.802 44.3442 25.802 42 25.802C39.6558 25.802 37.4288 25.802 35.3191 25.919C34.186 27.7517 32.9358 29.5844 31.7637 31.651L28.5991 37.5L31.7637 43.349C32.9358 45.4156 34.186 47.2483 35.3191 49.081C37.4288 49.198 39.6558 49.198 42 49.198C44.3442 49.198 46.5712 49.198 48.6809 49.081C49.814 47.2483 51.0642 45.4156 52.2363 43.349ZM42 17.1455C41.2577 18.0033 40.4763 18.9002 39.6949 19.953H44.3051C43.5237 18.9002 42.7423 18.0033 42 17.1455ZM42 57.8545C42.7423 56.9967 43.5237 56.0998 44.3051 55.047H39.6949C40.4763 56.0998 41.2577 56.9967 42 57.8545ZM60.0502 6.30535C57.6279 4.8236 52.2363 7.08521 46.0242 12.9342C48.0558 15.2348 50.0484 17.7304 51.9237 20.3429C55.1274 20.6549 58.2921 21.1228 61.3005 21.7467C63.293 13.4021 62.5507 7.67011 60.0502 6.30535ZM57.3153 28.6875L58.4484 30.6762C58.8781 29.5454 59.3079 28.4146 59.5814 27.3227C58.5265 27.0888 57.3544 26.8938 56.1433 26.6989L57.3153 28.6875ZM62.9805 1.19722C68.7237 4.47266 69.3488 13.0902 66.9265 23.1505C76.8502 26.075 84 30.9101 84 37.5C84 44.0899 76.8502 48.925 66.9265 51.8495C69.3488 61.9098 68.7237 70.5273 62.9805 73.8028C57.2763 77.0782 49.5014 73.3349 42 66.1991C34.4986 73.3349 26.7237 77.0782 20.9805 73.8028C15.2763 70.5273 14.6512 61.9098 17.0735 51.8495C7.14977 48.925 0 44.0899 0 37.5C0 30.9101 7.14977 26.075 17.0735 23.1505C14.6512 13.0902 15.2763 4.47266 20.9805 1.19722C26.7237 -2.07822 34.4986 1.66514 42 8.80092C49.5014 1.66514 57.2763 -2.07822 62.9805 1.19722ZM61.8474 37.5C63.1758 40.4245 64.3479 43.349 65.3246 46.3125C73.5293 43.8559 78.1395 40.3465 78.1395 37.5C78.1395 34.6535 73.5293 31.1441 65.3246 28.6875C64.3479 31.651 63.1758 34.5755 61.8474 37.5ZM22.1526 37.5C20.8242 34.5755 19.6521 31.651 18.6754 28.6875C10.4707 31.1441 5.86047 34.6535 5.86047 37.5C5.86047 40.3465 10.4707 43.8559 18.6754 46.3125C19.6521 43.349 20.8242 40.4245 22.1526 37.5ZM57.3153 46.3125L56.1433 48.3012C57.3544 48.1062 58.5265 47.9112 59.5814 47.6773C59.3079 46.5854 58.8781 45.4546 58.4484 44.3238L57.3153 46.3125ZM46.0242 62.0658C52.2363 67.9148 57.6279 70.1764 60.0502 68.6947C62.5507 67.3299 63.293 61.5979 61.3005 53.2533C58.2921 53.8772 55.1274 54.3451 51.9237 54.6571C50.0484 57.2696 48.0558 59.7652 46.0242 62.0658ZM26.6847 28.6875L27.8567 26.6989C26.6456 26.8938 25.4735 27.0888 24.4186 27.3227C24.6921 28.4146 25.1219 29.5454 25.5516 30.6762L26.6847 28.6875ZM37.9758 12.9342C31.7637 7.08521 26.3721 4.8236 23.9107 6.30535C21.4493 7.67011 20.707 13.4021 22.6995 21.7467C25.7978 21.1122 28.9279 20.6437 32.0763 20.3429C33.9516 17.7304 35.9442 15.2348 37.9758 12.9342Z" fill="#0F1014"/>
</svg>
