<svg width="84" height="84" viewBox="0 0 84 84" fill="none" xmlns="http://www.w3.org/2000/svg">
<path d="M42 38.5C33.25 38.5 25.8125 37.1292 19.6875 34.3875C13.5625 31.6458 10.5 28.35 10.5 24.5C10.5 20.65 13.5625 17.3542 19.6875 14.6125C25.8125 11.8708 33.25 10.5 42 10.5C50.75 10.5 58.1875 11.8708 64.3125 14.6125C70.4375 17.3542 73.5 20.65 73.5 24.5C73.5 28.35 70.4375 31.6458 64.3125 34.3875C58.1875 37.1292 50.75 38.5 42 38.5ZM42 56C33.25 56 25.8125 54.6292 19.6875 51.8875C13.5625 49.1458 10.5 45.85 10.5 42V33.25C10.5 35.8167 11.6958 37.9902 14.0875 39.7705C16.4792 41.5508 19.3375 42.994 22.6625 44.1C25.9875 45.2083 29.4443 46.011 33.033 46.508C36.6217 47.005 39.6107 47.2523 42 47.25C44.3917 47.25 47.3818 47.0015 50.9705 46.5045C54.5592 46.0075 58.0148 45.206 61.3375 44.1C64.6625 42.9917 67.5208 41.5485 69.9125 39.7705C72.3042 37.9925 73.5 35.819 73.5 33.25V42C73.5 45.85 70.4375 49.1458 64.3125 51.8875C58.1875 54.6292 50.75 56 42 56ZM42 73.5C33.25 73.5 25.8125 72.1292 19.6875 69.3875C13.5625 66.6458 10.5 63.35 10.5 59.5V50.75C10.5 53.3167 11.6958 55.4902 14.0875 57.2705C16.4792 59.0508 19.3375 60.494 22.6625 61.6C25.9875 62.7083 29.4443 63.511 33.033 64.008C36.6217 64.505 39.6107 64.7523 42 64.75C44.3917 64.75 47.3818 64.5015 50.9705 64.0045C54.5592 63.5075 58.0148 62.706 61.3375 61.6C64.6625 60.4917 67.5208 59.0473 69.9125 57.267C72.3042 55.4867 73.5 53.3143 73.5 50.75V59.5C73.5 63.35 70.4375 66.6458 64.3125 69.3875C58.1875 72.1292 50.75 73.5 42 73.5Z" fill="#0F1014"/>
</svg>
