<svg width="88" height="53" viewBox="0 0 88 53" fill="none" xmlns="http://www.w3.org/2000/svg">
<path d="M44 0C32.252 0 24.948 5.87417 22 17.6667C26.4 11.7925 31.548 9.58417 37.4 11.0417C40.744 11.8808 43.164 14.31 45.804 17.0042C50.116 21.4208 55 26.5 66 26.5C77.748 26.5 85.052 20.6258 88 8.83333C83.6 14.7075 78.452 16.9158 72.6 15.4583C69.256 14.6192 66.88 12.19 64.196 9.49583C59.884 5.07916 55 0 44 0ZM22 26.5C10.252 26.5 2.948 32.3742 0 44.1667C4.4 38.2925 9.548 36.0842 15.4 37.5417C18.744 38.3808 21.12 40.81 23.804 43.5042C28.116 47.9208 33 53 44 53C55.748 53 63.052 47.1258 66 35.3333C61.6 41.2075 56.452 43.4158 50.6 41.9583C47.256 41.1192 44.88 38.69 42.196 35.9958C37.884 31.5792 33 26.5 22 26.5Z" fill="#0F1014"/>
</svg>
