<svg width="100" height="100" viewBox="0 0 100 100" fill="none" xmlns="http://www.w3.org/2000/svg">
<g clip-path="url(#clip0_574_31)">
<path d="M99.9609 52.2266C94.8633 53.9258 89.5312 54.9219 84.1406 55.1758C85.9375 34.6094 77.9883 15.293 63.9844 1.97266C84.7852 8.02734 100 27.2461 100 50C100 50.7422 99.9805 51.4844 99.9609 52.2266ZM99.1992 59.0039C98.0664 65.2539 95.7617 71.1133 92.5195 76.3281C73.4766 85.8008 50 84.6484 31.6016 71.543C36.2305 64.4727 42.4219 58.3203 50.0586 53.6133C65.6641 62.0508 83.2812 63.5352 99.1992 59.0039ZM53.1055 48.1641C52.6172 30.4102 45.0781 14.4336 33.2031 2.91016C38.4375 1.01562 44.1016 0 50 0C50.5273 0 51.0352 0 51.543 0.0195313C69.2773 11.7773 80 32.6758 77.8516 55.1562C69.4336 54.6875 60.9766 52.4023 53.0859 48.1445L53.1055 48.1641ZM26.9531 5.625C30.9766 9.19922 34.5117 13.3203 37.4414 17.8516C18.7305 26.582 5.97656 43.125 1.42578 61.8945C0.488281 58.0859 0 54.1016 0 50C0 30.7031 10.9375 13.9648 26.9531 5.625ZM40.5469 23.3008C44.3555 30.8398 46.6016 39.2969 46.8555 48.2422C31.7383 57.5391 21.6602 72.0508 17.6172 88.0859C12.8906 84.0625 8.90625 79.1797 5.9375 73.6719C7.24609 52.4414 19.9805 32.6758 40.5273 23.3008H40.5469ZM50 100C40.0977 100 30.8594 97.1289 23.0859 92.1484C24.1797 86.875 25.9766 81.7773 28.4375 76.9727C45.3516 88.7891 66.0352 91.5625 84.5703 86.1328C75.5859 94.7266 63.418 100 50 100Z" fill="black"/>
</g>
<defs>
<clipPath id="clip0_574_31">
<rect width="100" height="100" fill="white"/>
</clipPath>
</defs>
</svg>
