<svg width="84" height="84" viewBox="0 0 84 84" fill="none" xmlns="http://www.w3.org/2000/svg">
<g clip-path="url(#clip0_535_6)">
<path fill-rule="evenodd" clip-rule="evenodd" d="M28.2268 17.7201H36.9769L49.5593 59.8745H41.959L38.8293 47.8669H26.5663L23.3727 59.8746H16.6663L28.227 19.7001L28.2268 17.7201ZM37.1047 41.6716L32.7615 23.8514L28.2906 41.6712L37.1047 41.6716ZM62.589 28.5465H55.691V59.8746H62.589V28.5465ZM59.051 16.3752C56.8163 16.3752 55.0047 18.166 55.0047 20.3751C55.0047 22.5842 56.8163 24.3751 59.051 24.3751C61.2857 24.3751 63.0975 22.5844 63.0975 20.3753C63.0975 18.1662 61.2859 16.3752 59.051 16.3752ZM84 84H0L0 0L84 0V84Z" fill="#0F1014"/>
</g>
<defs>
<clipPath id="clip0_535_6">
<rect width="84" height="84" fill="white"/>
</clipPath>
</defs>
</svg>
