<svg width="100" height="100" viewBox="0 0 100 100" fill="none" xmlns="http://www.w3.org/2000/svg">
<path d="M83.3749 24.5564C83.112 24.3452 82.7966 24.2095 82.4624 24.1638C82.1283 24.1181 81.788 24.1642 81.478 24.297L51.2905 37.3689C49.978 37.9408 48.3343 38.2127 46.6468 38.2127C44.2937 38.222 41.8593 37.6752 40.1624 36.9314C39.6453 36.7136 39.1529 36.4412 38.6937 36.1189C38.8187 36.0564 38.9749 35.9877 39.1468 35.9189L66.603 24.0314L70.6968 25.7814V20.6658C70.7029 20.301 70.6266 19.9395 70.4735 19.6083C70.3203 19.2772 70.0944 18.9849 69.8124 18.7533C69.5506 18.5423 69.2362 18.4067 68.9031 18.361C68.57 18.3153 68.2307 18.3613 67.9218 18.4939L37.7343 31.5658C36.803 31.9408 36.003 32.4033 35.328 33.0752C34.5464 33.8463 34.1025 34.8959 34.0937 35.9939C34.0937 36.0252 34.103 36.0783 34.103 36.0783V82.1095L34.0968 82.172C34.0968 82.1845 34.1062 82.1908 34.1062 82.2033V82.2533H34.1124C34.1749 83.8627 34.9874 84.8877 35.7624 85.6127C38.1999 87.7627 42.2937 88.9658 46.6499 89.0283C48.7124 89.0283 50.8062 88.7158 52.7437 87.8845L82.9405 74.8095C83.7374 74.4658 84.2593 73.6127 84.2593 72.647V26.4689C84.2641 26.1043 84.1872 25.7433 84.0341 25.4123C83.8811 25.0814 83.6558 24.7889 83.3749 24.5564ZM64.228 15.8064C64.1749 15.1189 63.8905 14.4627 63.3843 14.0689C63.1213 13.8577 62.8059 13.722 62.4718 13.6763C62.1376 13.6306 61.7974 13.6767 61.4874 13.8095L31.2999 26.8752C29.9874 27.4439 28.3405 27.7189 26.6562 27.7189C24.303 27.7252 21.8687 27.1783 20.1718 26.4314C19.6542 26.2173 19.1616 25.9469 18.703 25.6252C18.828 25.5627 18.9843 25.4939 19.1562 25.4252L46.6155 13.5377L50.7093 15.2877V10.1783C50.7148 9.81326 50.6379 9.45169 50.4842 9.12054C50.3306 8.78939 50.1041 8.49721 49.8218 8.26579C49.5593 8.05487 49.2444 7.91931 48.9109 7.87362C48.5773 7.82793 48.2375 7.87383 47.928 8.00642L17.7405 21.0814C16.8093 21.4564 16.0124 21.9158 15.3343 22.5908C14.5538 23.3624 14.111 24.412 14.103 25.5095C14.103 25.547 14.1124 25.597 14.1124 25.597V71.7752H14.1187C14.1812 73.3845 14.9937 74.4095 15.7687 75.1345C18.2062 77.2845 22.2999 78.4845 26.6593 78.547C27.8431 78.5401 29.0232 78.4123 30.1812 78.1658V36.0752C30.1499 33.8877 31.0249 31.7877 32.5624 30.2752C33.6276 29.2419 34.8932 28.4379 36.2812 27.9127L64.228 15.8064Z" fill="black"/>
</svg>
