<svg width="114" height="114" viewBox="0 0 114 114" fill="none" xmlns="http://www.w3.org/2000/svg">
<g clip-path="url(#clip0_535_18)">
<path d="M20.8157 0C9.28473 0 0 9.28473 0 20.8157V93.1844C0 104.715 9.28473 114 20.8157 114H60.0389V69.4332H48.2542V53.3877H60.0389V39.6792C60.0389 28.909 67.0019 19.0202 83.0419 19.0202C89.5363 19.0202 94.3386 19.6437 94.3386 19.6437L93.961 34.6276C93.961 34.6276 89.0632 34.5813 83.7188 34.5813C77.9345 34.5813 77.007 37.2464 77.007 41.6708V53.3878H94.4205L93.6617 69.4333H77.007V114H93.1843C104.715 114 114 104.716 114 93.1845V20.8158C114 9.28484 104.715 0.000114 93.1843 0.000114H20.8156L20.8157 0Z" fill="#1F2229"/>
</g>
<defs>
<clipPath id="clip0_535_18">
<rect width="114" height="114" fill="white"/>
</clipPath>
</defs>
</svg>
