<svg width="52" height="78" viewBox="0 0 52 78" fill="none" xmlns="http://www.w3.org/2000/svg">
<path d="M12.7397 0L25.4283 0V25.2784H12.7399C-3.99342 24.6268 -4.16242 0.684328 12.7397 0ZM12.7397 51.638H25.4283V26.3596H12.7399C-4.16227 27.0439 -3.99327 50.9864 12.7399 51.638H12.7397ZM39.2027 0L26.5138 0V25.2784H39.2027C56.1611 24.3744 55.9497 0.515988 39.2027 0ZM25.4283 65.3585V52.7192H12.7399C2.38545 52.7192 -4.16227 64.8116 3.03897 73.497C9.9048 82.1058 25.4285 77.8138 25.4285 65.3585H25.4283ZM51.9173 38.9988C51.9173 29.2853 41.2882 23.1817 32.831 28.0384C24.3738 32.8951 24.3737 45.1026 32.831 49.9593C41.2883 54.816 51.9173 48.7122 51.9173 38.9988Z" fill="#0F1014"/>
</svg>
