<svg width="100" height="100" viewBox="0 0 100 100" fill="none" xmlns="http://www.w3.org/2000/svg">
<g clip-path="url(#clip0_574_33)">
<path d="M22.4624 0.0158203L42.253 56.1033V56.0721L43.8155 60.4814C52.5218 85.1064 57.1937 98.3064 57.2093 98.3221L60.1405 98.5002C64.9593 98.6971 70.9312 99.2502 75.4562 99.7846C76.4968 99.9158 77.3937 99.9471 77.4593 99.9158L56.0249 39.1252L45.9187 10.5783C44.7311 7.17036 43.527 3.76824 42.3062 0.37207L42.1749 -0.00292969H22.4812L22.4624 0.0158203ZM57.9093 0.0501953L57.8593 22.1533L57.828 44.2721L56.0062 39.1283L53.6624 88.3314C55.9749 94.8596 57.2093 98.3408 57.228 98.3564C57.2468 98.3721 58.5624 98.4689 60.1405 98.5346C64.9749 98.7471 70.9312 99.2846 75.4718 99.8377C76.5124 99.9502 77.4249 100 77.4749 99.9502C77.5405 99.9189 77.5562 77.3752 77.5562 49.9189L77.5249 0.0501953H57.9093ZM22.4624 0.0158203V49.9658C22.4624 77.4408 22.4937 99.9502 22.528 99.9814C22.5624 100.013 24.253 99.8502 26.303 99.6221C28.3925 99.3605 30.4866 99.1375 32.5843 98.9533C34.7499 98.7408 41.2093 98.3189 41.9593 98.3189C42.1718 98.3189 42.1874 97.1971 42.2187 77.1596L42.2499 55.9846L43.828 60.4127L44.3812 61.9752L46.7562 12.8064L45.9593 10.5283L42.1655 0.0126953L22.4624 0.0158203Z" fill="black"/>
</g>
<defs>
<clipPath id="clip0_574_33">
<rect width="100" height="100" fill="white"/>
</clipPath>
</defs>
</svg>
