<svg width="78" height="77" viewBox="0 0 78 77" fill="none" xmlns="http://www.w3.org/2000/svg">
<path d="M45.9064 0.572688L48.8012 1.21034L51.1424 2.05012L53.0362 3.01262L54.4775 4.0425L55.5675 5.13253L56.3688 6.22016L56.8813 7.2765L57.1966 8.239L57.3337 9.06675L57.3987 9.71884L57.3602 10.1327V27.2652L57.1966 29.2841L56.7827 31.0527L56.1065 32.5325L55.2788 33.7477L54.3163 34.7366L53.2648 35.5379L52.1362 36.1539L51.0077 36.6039L49.9562 36.9311L48.9937 37.1429L48.1659 37.28L47.4898 37.345H28.3264L26.1223 37.5062L24.2285 37.9466L22.6236 38.6612L21.3073 39.5251L20.2414 40.5549L19.3751 41.669L18.7375 42.8361L18.2586 44.0127L17.9338 45.1388L17.71 46.1687L17.5825 47.0326L17.5223 47.7087V57.5238H10.3637L9.68997 57.4203L8.78522 57.1966L7.77219 56.8212L6.64366 56.2437L5.49106 55.4063L4.33847 54.2513L3.20994 52.7715L2.18247 50.8777L1.27772 48.5365L0.613594 45.7163L0.163625 42.3452L0 38.3989L0.190094 34.4888L0.702625 31.1561L1.47984 28.3625L2.50731 26.0813L3.66231 24.2526L4.94003 22.8473L6.29475 21.7814L7.63503 21.0186L8.92478 20.5061L10.0798 20.1788L11.1073 20.0152L11.87 19.9887H12.3826L12.5847 20.0152H38.7527V17.3587H20.0152L19.9887 8.53497L19.9286 7.34387L20.0922 6.25384L20.4411 5.26487L20.9801 4.36013L21.7814 3.53478L22.7848 2.79366L23.9975 2.156L25.4148 1.56647L27.0438 1.09244L28.9111 0.705031L30.9516 0.389812L33.2327 0.190094L35.7039 0.0649687L38.3989 0L42.4703 0.163625L45.9064 0.572688ZM25.7036 6.92519L24.9624 7.97672L24.7002 9.29294L24.9624 10.6116L25.7036 11.6992L26.7551 12.4138L28.0713 12.7026L29.3875 12.4138L30.4391 11.6992L31.1802 10.6116L31.4425 9.29294L31.1802 7.97672L30.4391 6.92519L29.3875 6.22256L28.0713 5.93622L26.7551 6.22256L25.7036 6.92519ZM67.6999 19.5941L68.5878 19.7962L69.6152 20.1716L70.7438 20.7491L71.8963 21.6129L73.0514 22.7415L74.1775 24.2454L75.2049 26.1343L76.0977 28.4804L76.7738 31.3125L77.2238 34.6452L77.3874 38.5914L77.1877 42.5401L76.6704 45.8727L75.9076 48.6279L74.8801 50.909L73.7251 52.7378L72.4354 54.1815L71.0951 55.2331L69.7403 56.0103L68.4626 56.5228L67.3076 56.8116L66.2802 56.9752L65.5174 57.0353L65.0049 56.9992H38.6227V59.6293H57.3602L57.3987 68.4915L57.4588 69.6441L57.2952 70.7341L56.9463 71.7231L56.3953 72.6495L55.594 73.4508L54.605 74.2304L53.3899 74.8681L51.9726 75.4191L50.3436 75.8931L48.4763 76.307L46.4238 76.5957L44.1547 76.8195L41.6714 76.9447L38.9764 76.9832L34.9051 76.858L31.4713 76.4057L28.5863 75.768L26.245 74.9667L24.3513 74.0018L22.9099 72.9358L21.8199 71.8458L21.0186 70.7582L20.5061 69.7018L20.1788 68.7393L20.0537 67.9381L19.9887 67.2956L20.0152 66.8841L20.0152 49.7516L20.1788 47.6943L20.6047 45.9522L21.2688 44.4867L22.1086 43.2572L23.0711 42.2441L24.1275 41.4669L25.2536 40.8244L26.3701 40.3745L27.4361 40.0472L28.401 39.8619L29.2263 39.7368L30.3163 39.6333H49.0538L51.27 39.4721L53.1637 39.0318L54.7687 38.3556L56.0849 37.4533L57.1412 36.4234L58.0051 35.3093L58.6572 34.1423L59.136 32.9897L59.4608 31.8732L59.6894 30.8457L59.8146 29.9434L59.8747 29.2672V19.4521L66.5809 19.4521L67.0333 19.4786L67.6999 19.5941ZM46.9315 65.3128L46.1904 66.3788L45.9401 67.6974L46.1904 69.0137L46.9315 70.0652L47.9975 70.8039L49.3137 71.0542L50.6299 70.8039L51.6814 70.0652L52.4226 69.0137L52.6848 67.6974L52.4226 66.3788L51.6814 65.3128L50.6299 64.5741L49.3137 64.3239L47.9975 64.5741L46.9315 65.3128Z" fill="#0F1014"/>
</svg>
